<svg xmlns="http://www.w3.org/2000/svg" viewBox="0 0 512 512">
  <title>space room image</title>
  <defs>
    <linearGradient id="bg" x1="0" x2="1" y1="0" y2="1">
      <stop offset="0" stop-color="#0369a1"/>
      <stop offset="1" stop-color="#a3e635"/>
    </linearGradient>
  </defs>
  <rect width="512" height="512" rx="72" fill="url(#bg)"/>
  <circle cx="135" cy="138" r="86" fill="#fff" opacity=".13"/>
  <circle cx="423" cy="339" r="132" fill="#000" opacity=".12"/>
  <path d="M0 383c75-42 153-59 235-51 113 11 186-17 277-78v258H0Z" fill="#f59e0b" opacity=".2"/>
  <g opacity=".95"><g stroke="#fff" stroke-width="18" stroke-linecap="round" stroke-linejoin="round" fill="none"><circle cx="256" cy="250" r="70"/><path d="M151 283c70-74 168-116 210-88 29 20-5 76-77 125-70 48-145 61-168 31-13-17 1-43 35-68Z"/><path d="M340 149l16-39 17 39 39 16-39 17-17 39-16-39-39-17Z"/></g></g>
  <rect x="64" y="64" width="384" height="384" rx="62" fill="none" stroke="#fff" stroke-width="10" opacity=".18"/>
</svg>
